<svg width="20" height="20" viewBox="0 0 20 20" fill="none" xmlns="http://www.w3.org/2000/svg">
<path d="M18.3337 18.333H1.66699C1.32533 18.333 1.04199 18.0497 1.04199 17.708C1.04199 17.3663 1.32533 17.083 1.66699 17.083H18.3337C18.6753 17.083 18.9587 17.3663 18.9587 17.708C18.9587 18.0497 18.6753 18.333 18.3337 18.333Z" fill="#2D2B6D"/>
<path d="M18.3337 18.333H1.66699C1.32533 18.333 1.04199 18.0497 1.04199 17.708C1.04199 17.3663 1.32533 17.083 1.66699 17.083H18.3337C18.6753 17.083 18.9587 17.3663 18.9587 17.708C18.9587 18.0497 18.6753 18.333 18.3337 18.333Z" fill="white" fill-opacity="0.6"/>
<path d="M8.125 3.33366V18.3337H11.875V3.33366C11.875 2.41699 11.5 1.66699 10.375 1.66699H9.625C8.5 1.66699 8.125 2.41699 8.125 3.33366Z" fill="#2D2B6D"/>
<path d="M8.125 3.33366V18.3337H11.875V3.33366C11.875 2.41699 11.5 1.66699 10.375 1.66699H9.625C8.5 1.66699 8.125 2.41699 8.125 3.33366Z" fill="white" fill-opacity="0.6"/>
<path d="M2.5 8.33366V18.3337H5.83333V8.33366C5.83333 7.41699 5.5 6.66699 4.5 6.66699H3.83333C2.83333 6.66699 2.5 7.41699 2.5 8.33366Z" fill="#2D2B6D"/>
<path d="M2.5 8.33366V18.3337H5.83333V8.33366C5.83333 7.41699 5.5 6.66699 4.5 6.66699H3.83333C2.83333 6.66699 2.5 7.41699 2.5 8.33366Z" fill="white" fill-opacity="0.6"/>
<path d="M14.167 12.4997V18.333H17.5003V12.4997C17.5003 11.583 17.167 10.833 16.167 10.833H15.5003C14.5003 10.833 14.167 11.583 14.167 12.4997Z" fill="#2D2B6D"/>
<path d="M14.167 12.4997V18.333H17.5003V12.4997C17.5003 11.583 17.167 10.833 16.167 10.833H15.5003C14.5003 10.833 14.167 11.583 14.167 12.4997Z" fill="white" fill-opacity="0.6"/>
</svg>
