<svg width="1072" height="311" viewBox="0 0 1072 311" fill="none" xmlns="http://www.w3.org/2000/svg">
<g clip-path="url(#clip0_3048_23873)">
<rect width="1072" height="311" rx="10" fill="white"/>
<rect width="352" height="223.786" transform="matrix(1 0 0 -1 0.000244141 223.787)" fill="#FFE6D2"/>
<path d="M0.000244141 111.893C0.000244141 50.0962 78.7981 0 176 0V223.786C78.7981 223.786 0.000244141 173.69 0.000244141 111.893Z" fill="#DF7829"/>
<path d="M351.999 111.893C351.999 50.0962 273.201 0 175.999 0L175.999 223.786C273.201 223.786 351.999 173.69 351.999 111.893Z" fill="#DF7829"/>
<rect x="352" y="-0.00189209" width="364" height="223.786" fill="#FFF6EF"/>
<rect x="352" y="-0.00189209" width="182" height="223.786" fill="#FFF6EF"/>
<path d="M534 -0.00037384C534 61.7964 615.484 111.893 716 111.893V-0.00037384L534 -0.00037384Z" fill="#DF7829"/>
<path d="M534 223.786C534 161.989 615.484 111.893 716 111.893V223.786H534Z" fill="#FFE6D2"/>
<rect width="362.245" height="223.786" transform="matrix(-1 0 0 1 1078.25 0.214844)" fill="#FFE6D2"/>
<path d="M1078.25 224.001H716L1078.25 0.214844V224.001Z" fill="#232323"/>
<rect x="0.247559" y="448" width="223.786" height="351.752" transform="rotate(-90 0.247559 448)" fill="#FFF6EF"/>
<rect x="352" y="448" width="223.786" height="364" transform="rotate(-90 352 448)" fill="#FFE6D2"/>
<path d="M715.999 336.109C615.483 336.109 533.999 286.013 533.999 224.216H715.999V336.109Z" fill="#DF7829"/>
<rect x="1078" y="224" width="223.786" height="362" transform="rotate(90 1078 224)" fill="#FFE6D2"/>
<path d="M1078 447.786C1078 418.398 1068.64 389.298 1050.44 362.147C1032.25 334.996 1005.59 310.326 971.973 289.545C938.358 268.765 898.451 252.281 854.531 241.035C810.612 229.788 763.538 224 716 224L716 447.786H1078Z" fill="#FFF6EF"/>
</g>
<defs>
<clipPath id="clip0_3048_23873">
<rect width="1072" height="311" rx="10" fill="white"/>
</clipPath>
</defs>
</svg>
