<svg width="24" height="24" viewBox="0 0 24 24" fill="none" xmlns="http://www.w3.org/2000/svg">
<path fill-rule="evenodd" clip-rule="evenodd" d="M11.4898 4.11048C8.68914 2.43005 5.26388 2.1556 2.23133 3.36862C1.78963 3.54529 1.5 3.97309 1.5 4.44881V16.1077C1.5 16.8887 2.28876 17.4227 3.01387 17.1326C5.49721 16.1393 8.30215 16.364 10.5956 17.7401L11.7309 18.4213C11.8175 18.4733 11.9101 18.496 12 18.4944C12.0899 18.496 12.1825 18.4733 12.2691 18.4213L13.4044 17.7401C15.6979 16.364 18.5028 16.1393 20.9861 17.1326C21.7112 17.4227 22.5 16.8887 22.5 16.1077V4.44881C22.5 3.97309 22.2104 3.54529 21.7687 3.36862C18.7361 2.1556 15.3109 2.43005 12.5102 4.11048L12 4.41657L11.4898 4.11048ZM12.75 6.49966C12.75 6.08545 12.4142 5.74966 12 5.74966C11.5858 5.74966 11.25 6.08545 11.25 6.49966V15.9997C11.25 16.4139 11.5858 16.7497 12 16.7497C12.4142 16.7497 12.75 16.4139 12.75 15.9997V6.49966Z" fill="#2D2B6D"/>
<path d="M2.72484 19.0419C4.7487 17.8613 7.2513 17.8613 9.27516 19.0419L10.3624 19.6761C11.3743 20.2664 12.6257 20.2664 13.6376 19.6761L14.7248 19.0419C16.7487 17.8613 19.2513 17.8613 21.2752 19.0419L21.3779 19.1018C21.7357 19.3105 21.8565 19.7698 21.6478 20.1276C21.4391 20.4854 20.9799 20.6062 20.6221 20.3975L20.5194 20.3376C18.9625 19.4294 17.0375 19.4294 15.4806 20.3376L14.3934 20.9718C12.9144 21.8345 11.0856 21.8345 9.60661 20.9718L8.51935 20.3376C6.96254 19.4294 5.03746 19.4294 3.48065 20.3376L3.3779 20.3975C3.02011 20.6062 2.56088 20.4854 2.35217 20.1276C2.14346 19.7698 2.26431 19.3105 2.6221 19.1018L2.72484 19.0419Z" fill="#2D2B6D"/>
</svg>
