<svg width="33" height="32" viewBox="0 0 33 32" fill="none" xmlns="http://www.w3.org/2000/svg">
<path d="M17.5359 3.99423C17.0221 3.1087 15.7432 3.10869 15.2294 3.99423L11.6107 10.2306C11.3568 10.6681 10.9181 10.9666 10.418 11.0421L3.63627 12.0664C2.49722 12.2385 2.09768 13.6766 2.98475 14.4116L8.03687 18.5972C8.50453 18.9846 8.72442 19.5958 8.61082 20.1924L7.28926 27.1326C7.08035 28.2297 8.23207 29.0821 9.22027 28.5618L15.6061 25.1993C16.0922 24.9434 16.6731 24.9434 17.1592 25.1993L23.545 28.5618C24.5332 29.0821 25.6849 28.2297 25.476 27.1326L24.1545 20.1924C24.0409 19.5958 24.2608 18.9846 24.7284 18.5972L29.7805 14.4116C30.6676 13.6766 30.2681 12.2385 29.129 12.0664L22.3473 11.0421C21.8472 10.9666 21.4085 10.6681 21.1546 10.2306L17.5359 3.99423Z" fill="white"/>
</svg>
