<svg width="25" height="25" viewBox="0 0 25 25" fill="none" xmlns="http://www.w3.org/2000/svg">
<path fill-rule="evenodd" clip-rule="evenodd" d="M12.8558 0.0700204C12.5739 -0.0234429 12.2767 -0.023357 11.9948 0.0703802C11.3946 0.269969 10.7887 0.454826 10.1808 0.640316C7.46768 1.46808 4.48042 2.37951 1.92504 4.81623L0.72021 5.96511C-0.240546 6.88125 -0.24004 8.67544 0.721549 9.59065L1.90689 10.7188C2.78259 11.5523 3.69523 12.2042 4.63049 12.7359V18.9977C4.63049 20.5307 5.4353 21.9068 6.65761 22.4636L11.2881 24.5731C12.0317 24.9119 12.8572 24.9119 13.6008 24.5731L18.2313 22.4636C19.4536 21.9068 20.2584 20.5307 20.2584 18.9977V12.7471C21.1875 12.2183 22.094 11.5696 22.9639 10.7402L23.1525 10.5604V17.2473C23.1525 17.8077 23.5412 18.2619 24.0207 18.2619C24.5002 18.2619 24.8889 17.8077 24.8889 17.2473V7.77821C24.8887 7.10074 24.6482 6.42338 24.1674 5.96578L22.982 4.83761C20.408 2.38779 17.2952 1.43911 14.6662 0.637853C14.0595 0.452966 13.4549 0.268693 12.8558 0.0700204ZM8.16025 12.9352C7.72054 12.7117 7.20904 12.947 7.01779 13.4609C6.82655 13.9747 7.02797 14.5724 7.46768 14.7959C8.94695 15.5477 10.4782 16.1628 12.0475 16.6335C12.3209 16.7155 12.6078 16.7154 12.8812 16.6331C14.4463 16.1624 15.973 15.5473 17.4475 14.7954C17.887 14.5713 18.0878 13.9733 17.8961 13.4597C17.7043 12.9462 17.1925 12.7115 16.7531 12.9356C15.3678 13.642 13.9338 14.2203 12.4638 14.6634C10.9893 14.2202 9.55044 13.6417 8.16025 12.9352Z" fill="white"/>
</svg>
