<svg width="137" height="168" viewBox="0 0 137 168" fill="none" xmlns="http://www.w3.org/2000/svg">
<path d="M135.184 28.9934C106.783 -0.0782137 64.7726 0.0137848 47.3177 3.69374L1.60938 138.012C18.2951 156.412 67.7311 164.079 90.3633 165.612L135.184 28.9934Z" stroke="#F3C019" stroke-opacity="0.47" stroke-width="2.66262"/>
<path d="M80.6006 73.1538C78.1155 70.2098 70.3939 68.5538 66.8437 68.0938L63.7373 78.6738C64.0923 80.5139 72.7606 82.8139 77.0504 83.7339L80.6006 73.1538Z" stroke="#F3C019" stroke-opacity="0.47" stroke-width="2.66262"/>
<path d="M101.901 80.5125C99.4163 77.5689 91.6946 75.9131 88.1445 75.4531L85.0381 86.0319C85.3931 87.8717 94.0614 90.1714 98.3512 91.0913L101.901 80.5125Z" stroke="#F3C019" stroke-opacity="0.47" stroke-width="2.66262"/>
<path d="M93.9135 106.273C91.4284 103.329 83.7068 101.673 80.1567 101.213L77.0503 111.792C77.4053 113.632 86.0736 115.932 90.3633 116.852L93.9135 106.273Z" stroke="#F3C019" stroke-opacity="0.47" stroke-width="2.66262"/>
<path d="M72.6125 97.9928C70.1274 95.0493 62.4058 93.3935 58.8557 92.9336L55.7493 103.512C56.1043 105.352 64.7726 107.651 69.0624 108.571L72.6125 97.9928Z" stroke="#F3C019" stroke-opacity="0.47" stroke-width="2.66262"/>
<path d="M47.7615 88.7918C45.2764 85.8482 37.5548 84.1924 34.0046 83.7324L30.8982 94.3112C31.2532 96.151 39.9215 98.4507 44.2113 99.3706L47.7615 88.7918Z" stroke="#F3C019" stroke-opacity="0.47" stroke-width="2.66262"/>
<path d="M38.886 114.552C36.4009 111.608 28.6793 109.952 25.1291 109.492L22.0227 120.071C22.3777 121.911 31.046 124.21 35.3358 125.13L38.886 114.552Z" stroke="#F3C019" stroke-opacity="0.47" stroke-width="2.66262"/>
<path d="M63.7373 122.833C61.2522 119.889 53.5306 118.233 49.9804 117.773L46.874 128.353C47.229 130.193 55.8974 132.493 60.1871 133.413L63.7373 122.833Z" stroke="#F3C019" stroke-opacity="0.47" stroke-width="2.66262"/>
<path d="M85.9258 132.032C83.4407 129.088 75.7191 127.433 72.1689 126.973L69.0625 137.551C69.4175 139.391 78.0858 141.691 82.3756 142.611L85.9258 132.032Z" stroke="#F3C019" stroke-opacity="0.47" stroke-width="2.66262"/>
</svg>
