<svg width="315" height="267" viewBox="0 0 315 267" fill="none" xmlns="http://www.w3.org/2000/svg">
<path fill-rule="evenodd" clip-rule="evenodd" d="M165 40L258 133L165 226L72 133L165 40Z" fill="#E6E6E6" stroke="#C0C0C0" stroke-width="0.512397"/>
<path fill-rule="evenodd" clip-rule="evenodd" d="M165.001 50.334L247.667 133.001L165.001 215.667L82.334 133.001L165.001 50.334Z" fill="#F5F5F5" stroke="#C0C0C0" stroke-width="0.512397"/>
<path fill-rule="evenodd" clip-rule="evenodd" d="M165.001 60.668L237.335 133.001L165.001 205.335L92.668 133.001L165.001 60.668Z" fill="#E6E6E6" stroke="#C0C0C0" stroke-width="0.512397"/>
<path fill-rule="evenodd" clip-rule="evenodd" d="M165 71L227 133L165 195L103 133L165 71Z" fill="#F5F5F5" stroke="#C0C0C0" stroke-width="0.512397"/>
<path fill-rule="evenodd" clip-rule="evenodd" d="M164.999 81.332L216.665 132.999L164.999 184.665L113.332 132.999L164.999 81.332Z" fill="#E6E6E6" stroke="#C0C0C0" stroke-width="0.512397"/>
<path fill-rule="evenodd" clip-rule="evenodd" d="M164.999 91.666L206.333 132.999L164.999 174.333L123.666 132.999L164.999 91.666Z" fill="#F5F5F5" stroke="#C0C0C0" stroke-width="0.512397"/>
<path fill-rule="evenodd" clip-rule="evenodd" d="M165 102L196 133L165 164L134 133L165 102Z" fill="#E6E6E6" stroke="#C0C0C0" stroke-width="0.512397"/>
<path fill-rule="evenodd" clip-rule="evenodd" d="M165.001 112.334L185.667 133.001L165.001 153.667L144.334 133.001L165.001 112.334Z" fill="#F5F5F5" stroke="#C0C0C0" stroke-width="0.512397"/>
<path fill-rule="evenodd" clip-rule="evenodd" d="M165.001 122.668L175.335 133.001L165.001 143.335L154.668 133.001L165.001 122.668Z" fill="#E6E6E6" stroke="#C0C0C0" stroke-width="0.512397"/>
<path d="M165 133V40" stroke="#C0C0C0" stroke-width="0.512397"/>
<path d="M165 133H258" stroke="#C0C0C0" stroke-width="0.512397"/>
<path d="M165 133V226" stroke="#C0C0C0" stroke-width="0.512397"/>
<path d="M165 133H72" stroke="#C0C0C0" stroke-width="0.512397"/>
<path opacity="0.5" fill-rule="evenodd" clip-rule="evenodd" d="M165 95.8027L211.5 133.003L165 188.803L99.9004 133.003L165 95.8027Z" fill="#2D2B6D"/>
<path fill-rule="evenodd" clip-rule="evenodd" d="M165 95.8027L211.5 133.003L165 188.803L99.9004 133.003L165 95.8027Z" stroke="#2D2B6D" stroke-width="0.512397"/>
<circle cx="165" cy="95.8025" r="1.79339" fill="white" stroke="#2D2B6D" stroke-width="1.02479"/>
<circle cx="211.5" cy="133.002" r="1.79339" fill="white" stroke="#2D2B6D" stroke-width="1.02479"/>
<circle cx="165" cy="188.802" r="1.79339" fill="white" stroke="#2D2B6D" stroke-width="1.02479"/>
<circle cx="99.9001" cy="133.002" r="1.79339" fill="white" stroke="#2D2B6D" stroke-width="1.02479"/>
<path d="M132.014 14H130.656V3.969H132.014V14ZM135.492 7.938C135.646 7.76533 135.809 7.609 135.982 7.469C136.155 7.329 136.337 7.21 136.528 7.112C136.724 7.00933 136.929 6.93233 137.144 6.881C137.363 6.825 137.599 6.797 137.851 6.797C138.238 6.797 138.579 6.86233 138.873 6.993C139.172 7.119 139.419 7.301 139.615 7.539C139.816 7.77233 139.967 8.05467 140.07 8.386C140.173 8.71733 140.224 9.08367 140.224 9.485V14H138.971V9.485C138.971 8.94833 138.847 8.533 138.6 8.239C138.357 7.94033 137.986 7.791 137.487 7.791C137.118 7.791 136.773 7.87967 136.451 8.057C136.134 8.23433 135.84 8.47467 135.569 8.778V14H134.316V6.909H135.065C135.242 6.909 135.352 6.99533 135.394 7.168L135.492 7.938ZM143.439 7.938C143.593 7.76533 143.756 7.609 143.929 7.469C144.101 7.329 144.283 7.21 144.475 7.112C144.671 7.00933 144.876 6.93233 145.091 6.881C145.31 6.825 145.546 6.797 145.798 6.797C146.185 6.797 146.526 6.86233 146.82 6.993C147.118 7.119 147.366 7.301 147.562 7.539C147.762 7.77233 147.914 8.05467 148.017 8.386C148.119 8.71733 148.171 9.08367 148.171 9.485V14H146.918V9.485C146.918 8.94833 146.794 8.533 146.547 8.239C146.304 7.94033 145.933 7.791 145.434 7.791C145.065 7.791 144.72 7.87967 144.398 8.057C144.08 8.23433 143.786 8.47467 143.516 8.778V14H142.263V6.909H143.012C143.189 6.909 143.299 6.99533 143.341 7.168L143.439 7.938ZM153.198 6.797C153.716 6.797 154.183 6.88333 154.598 7.056C155.014 7.22867 155.368 7.47367 155.662 7.791C155.956 8.10833 156.18 8.49333 156.334 8.946C156.493 9.394 156.572 9.89567 156.572 10.451C156.572 11.011 156.493 11.515 156.334 11.963C156.18 12.411 155.956 12.7937 155.662 13.111C155.368 13.4283 155.014 13.6733 154.598 13.846C154.183 14.014 153.716 14.098 153.198 14.098C152.676 14.098 152.204 14.014 151.784 13.846C151.369 13.6733 151.014 13.4283 150.72 13.111C150.426 12.7937 150.2 12.411 150.041 11.963C149.887 11.515 149.81 11.011 149.81 10.451C149.81 9.89567 149.887 9.394 150.041 8.946C150.2 8.49333 150.426 8.10833 150.72 7.791C151.014 7.47367 151.369 7.22867 151.784 7.056C152.204 6.88333 152.676 6.797 153.198 6.797ZM153.198 13.125C153.898 13.125 154.421 12.8917 154.766 12.425C155.112 11.9537 155.284 11.298 155.284 10.458C155.284 9.61333 155.112 8.95533 154.766 8.484C154.421 8.01267 153.898 7.777 153.198 7.777C152.844 7.777 152.533 7.83767 152.267 7.959C152.006 8.08033 151.787 8.25533 151.609 8.484C151.437 8.71267 151.306 8.995 151.217 9.331C151.133 9.66233 151.091 10.038 151.091 10.458C151.091 11.298 151.264 11.9537 151.609 12.425C151.959 12.8917 152.489 13.125 153.198 13.125ZM164.177 6.909L161.286 14H160.166L157.275 6.909H158.29C158.393 6.909 158.477 6.93467 158.542 6.986C158.608 7.03733 158.652 7.098 158.675 7.168L160.474 11.732C160.53 11.9047 160.579 12.0727 160.621 12.236C160.663 12.3993 160.703 12.5627 160.74 12.726C160.778 12.5627 160.817 12.3993 160.859 12.236C160.901 12.0727 160.953 11.9047 161.013 11.732L162.833 7.168C162.861 7.09333 162.908 7.03267 162.973 6.986C163.039 6.93467 163.116 6.909 163.204 6.909H164.177ZM169.153 10.808C168.579 10.8267 168.089 10.8733 167.683 10.948C167.281 11.018 166.952 11.1113 166.696 11.228C166.444 11.3447 166.259 11.4823 166.143 11.641C166.031 11.7997 165.975 11.977 165.975 12.173C165.975 12.3597 166.005 12.5207 166.066 12.656C166.126 12.7913 166.208 12.9033 166.311 12.992C166.418 13.076 166.542 13.139 166.682 13.181C166.826 13.2183 166.98 13.237 167.144 13.237C167.363 13.237 167.564 13.216 167.746 13.174C167.928 13.1273 168.098 13.062 168.257 12.978C168.42 12.894 168.574 12.7937 168.719 12.677C168.868 12.5603 169.013 12.4273 169.153 12.278V10.808ZM165.128 7.91C165.52 7.532 165.942 7.24967 166.395 7.063C166.847 6.87633 167.349 6.783 167.9 6.783C168.296 6.783 168.649 6.84833 168.957 6.979C169.265 7.10967 169.524 7.29167 169.734 7.525C169.944 7.75833 170.102 8.04067 170.21 8.372C170.317 8.70333 170.371 9.06733 170.371 9.464V14H169.818C169.696 14 169.603 13.9813 169.538 13.944C169.472 13.902 169.421 13.8227 169.384 13.706L169.244 13.034C169.057 13.2067 168.875 13.3607 168.698 13.496C168.52 13.6267 168.334 13.7387 168.138 13.832C167.942 13.9207 167.732 13.9883 167.508 14.035C167.288 14.0863 167.043 14.112 166.773 14.112C166.497 14.112 166.238 14.0747 165.996 14C165.753 13.9207 165.541 13.804 165.359 13.65C165.181 13.496 165.039 13.3023 164.932 13.069C164.829 12.831 164.778 12.551 164.778 12.229C164.778 11.949 164.855 11.6807 165.009 11.424C165.163 11.1627 165.412 10.9317 165.758 10.731C166.103 10.5303 166.553 10.367 167.109 10.241C167.664 10.1103 168.345 10.0357 169.153 10.017V9.464C169.153 8.91333 169.034 8.498 168.796 8.218C168.558 7.93333 168.21 7.791 167.753 7.791C167.445 7.791 167.186 7.83067 166.976 7.91C166.77 7.98467 166.591 8.071 166.437 8.169C166.287 8.26233 166.157 8.34867 166.045 8.428C165.937 8.50267 165.83 8.54 165.723 8.54C165.639 8.54 165.566 8.519 165.506 8.477C165.445 8.43033 165.394 8.37433 165.352 8.309L165.128 7.91ZM174.49 14.112C173.93 14.112 173.498 13.9557 173.195 13.643C172.896 13.3303 172.747 12.88 172.747 12.292V7.952H171.893C171.818 7.952 171.755 7.931 171.704 7.889C171.653 7.84233 171.627 7.77233 171.627 7.679V7.182L172.789 7.035L173.076 4.844C173.09 4.774 173.12 4.718 173.167 4.676C173.218 4.62933 173.284 4.606 173.363 4.606H173.993V7.049H176.044V7.952H173.993V12.208C173.993 12.5067 174.065 12.7283 174.21 12.873C174.355 13.0177 174.541 13.09 174.77 13.09C174.901 13.09 175.013 13.0737 175.106 13.041C175.204 13.0037 175.288 12.964 175.358 12.922C175.428 12.88 175.486 12.8427 175.533 12.81C175.584 12.7727 175.629 12.754 175.666 12.754C175.731 12.754 175.79 12.7937 175.841 12.873L176.205 13.468C175.99 13.6687 175.731 13.8273 175.428 13.944C175.125 14.056 174.812 14.112 174.49 14.112ZM180.418 6.797C180.936 6.797 181.403 6.88333 181.818 7.056C182.234 7.22867 182.588 7.47367 182.882 7.791C183.176 8.10833 183.4 8.49333 183.554 8.946C183.713 9.394 183.792 9.89567 183.792 10.451C183.792 11.011 183.713 11.515 183.554 11.963C183.4 12.411 183.176 12.7937 182.882 13.111C182.588 13.4283 182.234 13.6733 181.818 13.846C181.403 14.014 180.936 14.098 180.418 14.098C179.896 14.098 179.424 14.014 179.004 13.846C178.589 13.6733 178.234 13.4283 177.94 13.111C177.646 12.7937 177.42 12.411 177.261 11.963C177.107 11.515 177.03 11.011 177.03 10.451C177.03 9.89567 177.107 9.394 177.261 8.946C177.42 8.49333 177.646 8.10833 177.94 7.791C178.234 7.47367 178.589 7.22867 179.004 7.056C179.424 6.88333 179.896 6.797 180.418 6.797ZM180.418 13.125C181.118 13.125 181.641 12.8917 181.986 12.425C182.332 11.9537 182.504 11.298 182.504 10.458C182.504 9.61333 182.332 8.95533 181.986 8.484C181.641 8.01267 181.118 7.777 180.418 7.777C180.064 7.777 179.753 7.83767 179.487 7.959C179.226 8.08033 179.007 8.25533 178.829 8.484C178.657 8.71267 178.526 8.995 178.437 9.331C178.353 9.66233 178.311 10.038 178.311 10.458C178.311 11.298 178.484 11.9537 178.829 12.425C179.179 12.8917 179.709 13.125 180.418 13.125ZM186.696 8.33C186.92 7.84467 187.195 7.46667 187.522 7.196C187.848 6.92067 188.247 6.783 188.719 6.783C188.868 6.783 189.01 6.79933 189.146 6.832C189.286 6.86467 189.409 6.916 189.517 6.986L189.426 7.917C189.398 8.03367 189.328 8.092 189.216 8.092C189.15 8.092 189.055 8.078 188.929 8.05C188.803 8.022 188.66 8.008 188.502 8.008C188.278 8.008 188.077 8.04067 187.9 8.106C187.727 8.17133 187.571 8.26933 187.431 8.4C187.295 8.526 187.172 8.68467 187.06 8.876C186.952 9.06267 186.854 9.27733 186.766 9.52V14H185.513V6.909H186.227C186.362 6.909 186.455 6.93467 186.507 6.986C186.558 7.03733 186.593 7.126 186.612 7.252L186.696 8.33Z" fill="#232323"/>
<path d="M139.005 258.988C139.005 259.739 138.886 260.423 138.648 261.039C138.41 261.655 138.074 262.182 137.64 262.621C137.206 263.06 136.683 263.4 136.072 263.643C135.465 263.881 134.793 264 134.056 264H130.311V253.969H134.056C134.793 253.969 135.465 254.09 136.072 254.333C136.683 254.571 137.206 254.912 137.64 255.355C138.074 255.794 138.41 256.321 138.648 256.937C138.886 257.553 139.005 258.237 139.005 258.988ZM137.612 258.988C137.612 258.372 137.528 257.821 137.36 257.336C137.192 256.851 136.954 256.44 136.646 256.104C136.338 255.768 135.965 255.511 135.526 255.334C135.087 255.157 134.597 255.068 134.056 255.068H131.669V262.901H134.056C134.597 262.901 135.087 262.812 135.526 262.635C135.965 262.458 136.338 262.203 136.646 261.872C136.954 261.536 137.192 261.125 137.36 260.64C137.528 260.155 137.612 259.604 137.612 258.988ZM145.458 259.681C145.458 259.392 145.416 259.128 145.332 258.89C145.252 258.647 145.133 258.44 144.975 258.267C144.821 258.09 144.632 257.954 144.408 257.861C144.184 257.763 143.929 257.714 143.645 257.714C143.047 257.714 142.574 257.889 142.224 258.239C141.878 258.584 141.664 259.065 141.58 259.681H145.458ZM146.466 263.006C146.312 263.193 146.127 263.356 145.913 263.496C145.698 263.631 145.467 263.743 145.22 263.832C144.977 263.921 144.725 263.986 144.464 264.028C144.202 264.075 143.943 264.098 143.687 264.098C143.197 264.098 142.744 264.016 142.329 263.853C141.918 263.685 141.561 263.442 141.258 263.125C140.959 262.803 140.726 262.406 140.558 261.935C140.39 261.464 140.306 260.922 140.306 260.311C140.306 259.816 140.38 259.354 140.53 258.925C140.684 258.496 140.903 258.125 141.188 257.812C141.472 257.495 141.82 257.247 142.231 257.07C142.641 256.888 143.103 256.797 143.617 256.797C144.041 256.797 144.433 256.869 144.793 257.014C145.157 257.154 145.469 257.359 145.731 257.63C145.997 257.896 146.204 258.227 146.354 258.624C146.503 259.016 146.578 259.464 146.578 259.968C146.578 260.164 146.557 260.295 146.515 260.36C146.473 260.425 146.393 260.458 146.277 260.458H141.538C141.552 260.906 141.612 261.296 141.72 261.627C141.832 261.958 141.986 262.236 142.182 262.46C142.378 262.679 142.611 262.845 142.882 262.957C143.152 263.064 143.456 263.118 143.792 263.118C144.104 263.118 144.373 263.083 144.597 263.013C144.825 262.938 145.021 262.859 145.185 262.775C145.348 262.691 145.483 262.614 145.591 262.544C145.703 262.469 145.798 262.432 145.878 262.432C145.98 262.432 146.06 262.472 146.116 262.551L146.466 263.006ZM154.174 256.909L151.283 264H150.163L147.272 256.909H148.287C148.389 256.909 148.473 256.935 148.539 256.986C148.604 257.037 148.648 257.098 148.672 257.168L150.471 261.732C150.527 261.905 150.576 262.073 150.618 262.236C150.66 262.399 150.699 262.563 150.737 262.726C150.774 262.563 150.814 262.399 150.856 262.236C150.898 262.073 150.949 261.905 151.01 261.732L152.83 257.168C152.858 257.093 152.904 257.033 152.97 256.986C153.035 256.935 153.112 256.909 153.201 256.909H154.174ZM160.011 259.681C160.011 259.392 159.969 259.128 159.885 258.89C159.806 258.647 159.687 258.44 159.528 258.267C159.374 258.09 159.185 257.954 158.961 257.861C158.737 257.763 158.483 257.714 158.198 257.714C157.601 257.714 157.127 257.889 156.777 258.239C156.432 258.584 156.217 259.065 156.133 259.681H160.011ZM161.019 263.006C160.865 263.193 160.681 263.356 160.466 263.496C160.251 263.631 160.02 263.743 159.773 263.832C159.53 263.921 159.278 263.986 159.017 264.028C158.756 264.075 158.497 264.098 158.24 264.098C157.75 264.098 157.297 264.016 156.882 263.853C156.471 263.685 156.114 263.442 155.811 263.125C155.512 262.803 155.279 262.406 155.111 261.935C154.943 261.464 154.859 260.922 154.859 260.311C154.859 259.816 154.934 259.354 155.083 258.925C155.237 258.496 155.456 258.125 155.741 257.812C156.026 257.495 156.373 257.247 156.784 257.07C157.195 256.888 157.657 256.797 158.17 256.797C158.595 256.797 158.987 256.869 159.346 257.014C159.71 257.154 160.023 257.359 160.284 257.63C160.55 257.896 160.758 258.227 160.907 258.624C161.056 259.016 161.131 259.464 161.131 259.968C161.131 260.164 161.11 260.295 161.068 260.36C161.026 260.425 160.947 260.458 160.83 260.458H156.091C156.105 260.906 156.166 261.296 156.273 261.627C156.385 261.958 156.539 262.236 156.735 262.46C156.931 262.679 157.164 262.845 157.435 262.957C157.706 263.064 158.009 263.118 158.345 263.118C158.658 263.118 158.926 263.083 159.15 263.013C159.379 262.938 159.575 262.859 159.738 262.775C159.901 262.691 160.037 262.614 160.144 262.544C160.256 262.469 160.352 262.432 160.431 262.432C160.534 262.432 160.613 262.472 160.669 262.551L161.019 263.006ZM164.089 253.689V264H162.843V253.689H164.089ZM169.239 256.797C169.757 256.797 170.224 256.883 170.639 257.056C171.054 257.229 171.409 257.474 171.703 257.791C171.997 258.108 172.221 258.493 172.375 258.946C172.534 259.394 172.613 259.896 172.613 260.451C172.613 261.011 172.534 261.515 172.375 261.963C172.221 262.411 171.997 262.794 171.703 263.111C171.409 263.428 171.054 263.673 170.639 263.846C170.224 264.014 169.757 264.098 169.239 264.098C168.716 264.098 168.245 264.014 167.825 263.846C167.41 263.673 167.055 263.428 166.761 263.111C166.467 262.794 166.241 262.411 166.082 261.963C165.928 261.515 165.851 261.011 165.851 260.451C165.851 259.896 165.928 259.394 166.082 258.946C166.241 258.493 166.467 258.108 166.761 257.791C167.055 257.474 167.41 257.229 167.825 257.056C168.245 256.883 168.716 256.797 169.239 256.797ZM169.239 263.125C169.939 263.125 170.462 262.892 170.807 262.425C171.152 261.954 171.325 261.298 171.325 260.458C171.325 259.613 171.152 258.955 170.807 258.484C170.462 258.013 169.939 257.777 169.239 257.777C168.884 257.777 168.574 257.838 168.308 257.959C168.047 258.08 167.827 258.255 167.65 258.484C167.477 258.713 167.347 258.995 167.258 259.331C167.174 259.662 167.132 260.038 167.132 260.458C167.132 261.298 167.305 261.954 167.65 262.425C168 262.892 168.53 263.125 169.239 263.125ZM175.586 262.292C175.815 262.6 176.065 262.817 176.335 262.943C176.606 263.069 176.909 263.132 177.245 263.132C177.908 263.132 178.417 262.896 178.771 262.425C179.126 261.954 179.303 261.282 179.303 260.409C179.303 259.947 179.261 259.55 179.177 259.219C179.098 258.888 178.981 258.617 178.827 258.407C178.673 258.192 178.484 258.036 178.26 257.938C178.036 257.84 177.782 257.791 177.497 257.791C177.091 257.791 176.734 257.884 176.426 258.071C176.123 258.258 175.843 258.521 175.586 258.862V262.292ZM175.523 258.008C175.822 257.639 176.167 257.343 176.559 257.119C176.951 256.895 177.399 256.783 177.903 256.783C178.314 256.783 178.685 256.862 179.016 257.021C179.348 257.175 179.63 257.406 179.863 257.714C180.097 258.017 180.276 258.395 180.402 258.848C180.528 259.301 180.591 259.821 180.591 260.409C180.591 260.932 180.521 261.419 180.381 261.872C180.241 262.32 180.038 262.71 179.772 263.041C179.511 263.368 179.189 263.627 178.806 263.818C178.428 264.005 178.001 264.098 177.525 264.098C177.091 264.098 176.718 264.026 176.405 263.881C176.097 263.732 175.824 263.526 175.586 263.265V266.401H174.333V256.909H175.082C175.26 256.909 175.369 256.995 175.411 257.168L175.523 258.008ZM187.067 259.681C187.067 259.392 187.025 259.128 186.941 258.89C186.862 258.647 186.743 258.44 186.584 258.267C186.43 258.09 186.241 257.954 186.017 257.861C185.793 257.763 185.539 257.714 185.254 257.714C184.657 257.714 184.183 257.889 183.833 258.239C183.488 258.584 183.273 259.065 183.189 259.681H187.067ZM188.075 263.006C187.921 263.193 187.737 263.356 187.522 263.496C187.307 263.631 187.076 263.743 186.829 263.832C186.586 263.921 186.334 263.986 186.073 264.028C185.812 264.075 185.553 264.098 185.296 264.098C184.806 264.098 184.353 264.016 183.938 263.853C183.527 263.685 183.17 263.442 182.867 263.125C182.568 262.803 182.335 262.406 182.167 261.935C181.999 261.464 181.915 260.922 181.915 260.311C181.915 259.816 181.99 259.354 182.139 258.925C182.293 258.496 182.512 258.125 182.797 257.812C183.082 257.495 183.429 257.247 183.84 257.07C184.251 256.888 184.713 256.797 185.226 256.797C185.651 256.797 186.043 256.869 186.402 257.014C186.766 257.154 187.079 257.359 187.34 257.63C187.606 257.896 187.814 258.227 187.963 258.624C188.112 259.016 188.187 259.464 188.187 259.968C188.187 260.164 188.166 260.295 188.124 260.36C188.082 260.425 188.003 260.458 187.886 260.458H183.147C183.161 260.906 183.222 261.296 183.329 261.627C183.441 261.958 183.595 262.236 183.791 262.46C183.987 262.679 184.22 262.845 184.491 262.957C184.762 263.064 185.065 263.118 185.401 263.118C185.714 263.118 185.982 263.083 186.206 263.013C186.435 262.938 186.631 262.859 186.794 262.775C186.957 262.691 187.093 262.614 187.2 262.544C187.312 262.469 187.408 262.432 187.487 262.432C187.59 262.432 187.669 262.472 187.725 262.551L188.075 263.006ZM191.041 258.33C191.265 257.845 191.54 257.467 191.867 257.196C192.193 256.921 192.592 256.783 193.064 256.783C193.213 256.783 193.355 256.799 193.491 256.832C193.631 256.865 193.754 256.916 193.862 256.986L193.771 257.917C193.743 258.034 193.673 258.092 193.561 258.092C193.495 258.092 193.4 258.078 193.274 258.05C193.148 258.022 193.005 258.008 192.847 258.008C192.623 258.008 192.422 258.041 192.245 258.106C192.072 258.171 191.916 258.269 191.776 258.4C191.64 258.526 191.517 258.685 191.405 258.876C191.297 259.063 191.199 259.277 191.111 259.52V264H189.858V256.909H190.572C190.707 256.909 190.8 256.935 190.852 256.986C190.903 257.037 190.938 257.126 190.957 257.252L191.041 258.33Z" fill="#232323"/>
<path d="M286.718 128.969V139H285.528V131.629C285.528 131.531 285.53 131.426 285.535 131.314C285.544 131.202 285.554 131.088 285.563 130.971L282.119 137.243C282.012 137.453 281.848 137.558 281.629 137.558H281.433C281.214 137.558 281.05 137.453 280.943 137.243L277.429 130.943C277.457 131.19 277.471 131.419 277.471 131.629V139H276.281V128.969H277.282C277.403 128.969 277.497 128.981 277.562 129.004C277.627 129.027 277.69 129.093 277.751 129.2L281.216 135.374C281.272 135.486 281.326 135.603 281.377 135.724C281.433 135.845 281.484 135.969 281.531 136.095C281.578 135.969 281.627 135.845 281.678 135.724C281.729 135.598 281.785 135.479 281.846 135.367L285.248 129.2C285.304 129.093 285.365 129.027 285.43 129.004C285.5 128.981 285.596 128.969 285.717 128.969H286.718ZM292.767 135.808C292.193 135.827 291.703 135.873 291.297 135.948C290.896 136.018 290.567 136.111 290.31 136.228C290.058 136.345 289.874 136.482 289.757 136.641C289.645 136.8 289.589 136.977 289.589 137.173C289.589 137.36 289.619 137.521 289.68 137.656C289.741 137.791 289.822 137.903 289.925 137.992C290.032 138.076 290.156 138.139 290.296 138.181C290.441 138.218 290.595 138.237 290.758 138.237C290.977 138.237 291.178 138.216 291.36 138.174C291.542 138.127 291.712 138.062 291.871 137.978C292.034 137.894 292.188 137.794 292.333 137.677C292.482 137.56 292.627 137.427 292.767 137.278V135.808ZM288.742 132.91C289.134 132.532 289.556 132.25 290.009 132.063C290.462 131.876 290.963 131.783 291.514 131.783C291.911 131.783 292.263 131.848 292.571 131.979C292.879 132.11 293.138 132.292 293.348 132.525C293.558 132.758 293.717 133.041 293.824 133.372C293.931 133.703 293.985 134.067 293.985 134.464V139H293.432C293.311 139 293.217 138.981 293.152 138.944C293.087 138.902 293.035 138.823 292.998 138.706L292.858 138.034C292.671 138.207 292.489 138.361 292.312 138.496C292.135 138.627 291.948 138.739 291.752 138.832C291.556 138.921 291.346 138.988 291.122 139.035C290.903 139.086 290.658 139.112 290.387 139.112C290.112 139.112 289.853 139.075 289.61 139C289.367 138.921 289.155 138.804 288.973 138.65C288.796 138.496 288.653 138.302 288.546 138.069C288.443 137.831 288.392 137.551 288.392 137.229C288.392 136.949 288.469 136.681 288.623 136.424C288.777 136.163 289.027 135.932 289.372 135.731C289.717 135.53 290.168 135.367 290.723 135.241C291.278 135.11 291.96 135.036 292.767 135.017V134.464C292.767 133.913 292.648 133.498 292.41 133.218C292.172 132.933 291.824 132.791 291.367 132.791C291.059 132.791 290.8 132.831 290.59 132.91C290.385 132.985 290.205 133.071 290.051 133.169C289.902 133.262 289.771 133.349 289.659 133.428C289.552 133.503 289.444 133.54 289.337 133.54C289.253 133.54 289.181 133.519 289.12 133.477C289.059 133.43 289.008 133.374 288.966 133.309L288.742 132.91ZM297.276 128.689V134.758H297.598C297.691 134.758 297.768 134.746 297.829 134.723C297.894 134.695 297.962 134.641 298.032 134.562L300.272 132.161C300.337 132.082 300.405 132.021 300.475 131.979C300.55 131.932 300.648 131.909 300.769 131.909H301.896L299.285 134.688C299.159 134.847 299.024 134.97 298.879 135.059C298.963 135.115 299.038 135.18 299.103 135.255C299.173 135.325 299.238 135.407 299.299 135.5L302.071 139H300.958C300.851 139 300.757 138.984 300.678 138.951C300.603 138.914 300.538 138.848 300.482 138.755L298.151 135.85C298.081 135.752 298.011 135.689 297.941 135.661C297.876 135.628 297.773 135.612 297.633 135.612H297.276V139H296.023V128.689H297.276ZM307.622 134.681C307.622 134.392 307.58 134.128 307.496 133.89C307.416 133.647 307.297 133.44 307.139 133.267C306.985 133.09 306.796 132.954 306.572 132.861C306.348 132.763 306.093 132.714 305.809 132.714C305.211 132.714 304.738 132.889 304.388 133.239C304.042 133.584 303.828 134.065 303.744 134.681H307.622ZM308.63 138.006C308.476 138.193 308.291 138.356 308.077 138.496C307.862 138.631 307.631 138.743 307.384 138.832C307.141 138.921 306.889 138.986 306.628 139.028C306.366 139.075 306.107 139.098 305.851 139.098C305.361 139.098 304.908 139.016 304.493 138.853C304.082 138.685 303.725 138.442 303.422 138.125C303.123 137.803 302.89 137.406 302.722 136.935C302.554 136.464 302.47 135.922 302.47 135.311C302.47 134.816 302.544 134.354 302.694 133.925C302.848 133.496 303.067 133.125 303.352 132.812C303.636 132.495 303.984 132.247 304.395 132.07C304.805 131.888 305.267 131.797 305.781 131.797C306.205 131.797 306.597 131.869 306.957 132.014C307.321 132.154 307.633 132.359 307.895 132.63C308.161 132.896 308.368 133.227 308.518 133.624C308.667 134.016 308.742 134.464 308.742 134.968C308.742 135.164 308.721 135.295 308.679 135.36C308.637 135.425 308.557 135.458 308.441 135.458H303.702C303.716 135.906 303.776 136.296 303.884 136.627C303.996 136.958 304.15 137.236 304.346 137.46C304.542 137.679 304.775 137.845 305.046 137.957C305.316 138.064 305.62 138.118 305.956 138.118C306.268 138.118 306.537 138.083 306.761 138.013C306.989 137.938 307.185 137.859 307.349 137.775C307.512 137.691 307.647 137.614 307.755 137.544C307.867 137.469 307.962 137.432 308.042 137.432C308.144 137.432 308.224 137.472 308.28 137.551L308.63 138.006ZM311.595 133.33C311.819 132.845 312.095 132.467 312.421 132.196C312.748 131.921 313.147 131.783 313.618 131.783C313.768 131.783 313.91 131.799 314.045 131.832C314.185 131.865 314.309 131.916 314.416 131.986L314.325 132.917C314.297 133.034 314.227 133.092 314.115 133.092C314.05 133.092 313.954 133.078 313.828 133.05C313.702 133.022 313.56 133.008 313.401 133.008C313.177 133.008 312.977 133.041 312.799 133.106C312.627 133.171 312.47 133.269 312.33 133.4C312.195 133.526 312.071 133.685 311.959 133.876C311.852 134.063 311.754 134.277 311.665 134.52V139H310.412V131.909H311.126C311.262 131.909 311.355 131.935 311.406 131.986C311.458 132.037 311.493 132.126 311.511 132.252L311.595 133.33Z" fill="#232323"/>
<path d="M10.0477 133.988C10.0477 134.739 9.92874 135.423 9.69074 136.039C9.45274 136.655 9.11674 137.182 8.68273 137.621C8.24874 138.06 7.72607 138.4 7.11474 138.643C6.50807 138.881 5.83607 139 5.09874 139H1.35373V128.969H5.09874C5.83607 128.969 6.50807 129.09 7.11474 129.333C7.72607 129.571 8.24874 129.912 8.68273 130.355C9.11674 130.794 9.45274 131.321 9.69074 131.937C9.92874 132.553 10.0477 133.237 10.0477 133.988ZM8.65474 133.988C8.65474 133.372 8.57074 132.821 8.40274 132.336C8.23474 131.851 7.99674 131.44 7.68874 131.104C7.38074 130.768 7.0074 130.511 6.56874 130.334C6.13007 130.157 5.64007 130.068 5.09874 130.068H2.71173V137.901H5.09874C5.64007 137.901 6.13007 137.812 6.56874 137.635C7.0074 137.458 7.38074 137.203 7.68874 136.872C7.99674 136.536 8.23474 136.125 8.40274 135.64C8.57074 135.155 8.65474 134.604 8.65474 133.988ZM16.5004 134.681C16.5004 134.392 16.4584 134.128 16.3744 133.89C16.2951 133.647 16.1761 133.44 16.0174 133.267C15.8634 133.09 15.6744 132.954 15.4504 132.861C15.2264 132.763 14.9721 132.714 14.6874 132.714C14.0901 132.714 13.6164 132.889 13.2664 133.239C12.9211 133.584 12.7064 134.065 12.6224 134.681H16.5004ZM17.5084 138.006C17.3544 138.193 17.1701 138.356 16.9554 138.496C16.7408 138.631 16.5098 138.743 16.2624 138.832C16.0198 138.921 15.7678 138.986 15.5064 139.028C15.2451 139.075 14.9861 139.098 14.7294 139.098C14.2394 139.098 13.7868 139.016 13.3714 138.853C12.9608 138.685 12.6038 138.442 12.3004 138.125C12.0018 137.803 11.7684 137.406 11.6004 136.935C11.4324 136.464 11.3484 135.922 11.3484 135.311C11.3484 134.816 11.4231 134.354 11.5724 133.925C11.7264 133.496 11.9458 133.125 12.2304 132.812C12.5151 132.495 12.8628 132.247 13.2734 132.07C13.6841 131.888 14.1461 131.797 14.6594 131.797C15.0841 131.797 15.4761 131.869 15.8354 132.014C16.1994 132.154 16.5121 132.359 16.7734 132.63C17.0394 132.896 17.2471 133.227 17.3964 133.624C17.5458 134.016 17.6204 134.464 17.6204 134.968C17.6204 135.164 17.5994 135.295 17.5574 135.36C17.5154 135.425 17.4361 135.458 17.3194 135.458H12.5804C12.5944 135.906 12.6551 136.296 12.7624 136.627C12.8744 136.958 13.0284 137.236 13.2244 137.46C13.4204 137.679 13.6538 137.845 13.9244 137.957C14.1951 138.064 14.4984 138.118 14.8344 138.118C15.1471 138.118 15.4154 138.083 15.6394 138.013C15.8681 137.938 16.0641 137.859 16.2274 137.775C16.3908 137.691 16.5261 137.614 16.6334 137.544C16.7454 137.469 16.8411 137.432 16.9204 137.432C17.0231 137.432 17.1024 137.472 17.1584 137.551L17.5084 138.006ZM23.4209 133.078C23.3649 133.181 23.2786 133.232 23.1619 133.232C23.0919 133.232 23.0126 133.206 22.9239 133.155C22.8352 133.104 22.7256 133.048 22.5949 132.987C22.4689 132.922 22.3172 132.863 22.1399 132.812C21.9626 132.756 21.7526 132.728 21.5099 132.728C21.2999 132.728 21.1109 132.756 20.9429 132.812C20.7749 132.863 20.6302 132.936 20.5089 133.029C20.3922 133.122 20.3012 133.232 20.2359 133.358C20.1752 133.479 20.1449 133.612 20.1449 133.757C20.1449 133.939 20.1962 134.091 20.2989 134.212C20.4062 134.333 20.5462 134.438 20.7189 134.527C20.8916 134.616 21.0876 134.695 21.3069 134.765C21.5262 134.83 21.7502 134.903 21.9789 134.982C22.2122 135.057 22.4386 135.141 22.6579 135.234C22.8772 135.327 23.0732 135.444 23.2459 135.584C23.4186 135.724 23.5562 135.897 23.6589 136.102C23.7662 136.303 23.8199 136.545 23.8199 136.83C23.8199 137.157 23.7616 137.46 23.6449 137.74C23.5282 138.015 23.3556 138.256 23.1269 138.461C22.8982 138.662 22.6182 138.82 22.2869 138.937C21.9556 139.054 21.5729 139.112 21.1389 139.112C20.6442 139.112 20.1962 139.033 19.7949 138.874C19.3936 138.711 19.0529 138.503 18.7729 138.251L19.0669 137.775C19.1042 137.714 19.1486 137.668 19.1999 137.635C19.2512 137.602 19.3166 137.586 19.3959 137.586C19.4799 137.586 19.5686 137.619 19.6619 137.684C19.7552 137.749 19.8672 137.822 19.9979 137.901C20.1332 137.98 20.2966 138.053 20.4879 138.118C20.6792 138.183 20.9172 138.216 21.2019 138.216C21.4446 138.216 21.6569 138.186 21.8389 138.125C22.0209 138.06 22.1726 137.973 22.2939 137.866C22.4152 137.759 22.5039 137.635 22.5599 137.495C22.6206 137.355 22.6509 137.206 22.6509 137.047C22.6509 136.851 22.5972 136.69 22.4899 136.564C22.3872 136.433 22.2496 136.324 22.0769 136.235C21.9042 136.142 21.7059 136.062 21.4819 135.997C21.2626 135.927 21.0362 135.855 20.8029 135.78C20.5742 135.705 20.3479 135.621 20.1239 135.528C19.9046 135.43 19.7086 135.309 19.5359 135.164C19.3632 135.019 19.2232 134.842 19.1159 134.632C19.0132 134.417 18.9619 134.158 18.9619 133.855C18.9619 133.584 19.0179 133.325 19.1299 133.078C19.2419 132.826 19.4052 132.607 19.6199 132.42C19.8346 132.229 20.0982 132.077 20.4109 131.965C20.7236 131.853 21.0806 131.797 21.4819 131.797C21.9486 131.797 22.3662 131.872 22.7349 132.021C23.1082 132.166 23.4302 132.366 23.7009 132.623L23.4209 133.078ZM26.8035 131.909V139H25.5575V131.909H26.8035ZM27.0695 129.683C27.0695 129.804 27.0439 129.919 26.9925 130.026C26.9459 130.129 26.8805 130.222 26.7965 130.306C26.7172 130.385 26.6215 130.448 26.5095 130.495C26.4022 130.542 26.2879 130.565 26.1665 130.565C26.0452 130.565 25.9309 130.542 25.8235 130.495C25.7209 130.448 25.6299 130.385 25.5505 130.306C25.4712 130.222 25.4082 130.129 25.3615 130.026C25.3149 129.919 25.2915 129.804 25.2915 129.683C25.2915 129.562 25.3149 129.447 25.3615 129.34C25.4082 129.228 25.4712 129.132 25.5505 129.053C25.6299 128.969 25.7209 128.904 25.8235 128.857C25.9309 128.81 26.0452 128.787 26.1665 128.787C26.2879 128.787 26.4022 128.81 26.5095 128.857C26.6215 128.904 26.7172 128.969 26.7965 129.053C26.8805 129.132 26.9459 129.228 26.9925 129.34C27.0439 129.447 27.0695 129.562 27.0695 129.683ZM31.4618 135.535C31.7138 135.535 31.9355 135.5 32.1268 135.43C32.3182 135.36 32.4792 135.262 32.6098 135.136C32.7405 135.01 32.8385 134.861 32.9038 134.688C32.9692 134.511 33.0018 134.317 33.0018 134.107C33.0018 133.673 32.8688 133.328 32.6028 133.071C32.3415 132.814 31.9612 132.686 31.4618 132.686C30.9578 132.686 30.5728 132.814 30.3068 133.071C30.0455 133.328 29.9148 133.673 29.9148 134.107C29.9148 134.317 29.9475 134.511 30.0128 134.688C30.0828 134.861 30.1832 135.01 30.3138 135.136C30.4445 135.262 30.6055 135.36 30.7968 135.43C30.9882 135.5 31.2098 135.535 31.4618 135.535ZM33.7088 139.385C33.7088 139.212 33.6598 139.072 33.5618 138.965C33.4638 138.858 33.3308 138.774 33.1628 138.713C32.9995 138.652 32.8082 138.61 32.5888 138.587C32.3695 138.559 32.1362 138.538 31.8888 138.524C31.6462 138.51 31.3988 138.496 31.1468 138.482C30.8948 138.468 30.6522 138.445 30.4188 138.412C30.1575 138.533 29.9428 138.687 29.7748 138.874C29.6115 139.056 29.5298 139.271 29.5298 139.518C29.5298 139.677 29.5695 139.824 29.6488 139.959C29.7328 140.099 29.8588 140.218 30.0268 140.316C30.1948 140.419 30.4048 140.498 30.6568 140.554C30.9135 140.615 31.2145 140.645 31.5598 140.645C31.8958 140.645 32.1968 140.615 32.4628 140.554C32.7288 140.493 32.9528 140.407 33.1348 140.295C33.3215 140.183 33.4638 140.05 33.5618 139.896C33.6598 139.742 33.7088 139.572 33.7088 139.385ZM34.9758 132.189V132.651C34.9758 132.805 34.8778 132.903 34.6818 132.945L33.8768 133.05C34.0355 133.358 34.1148 133.699 34.1148 134.072C34.1148 134.417 34.0472 134.732 33.9118 135.017C33.7812 135.297 33.5992 135.537 33.3658 135.738C33.1325 135.939 32.8525 136.093 32.5258 136.2C32.1992 136.307 31.8445 136.361 31.4618 136.361C31.1305 136.361 30.8178 136.321 30.5238 136.242C30.3745 136.335 30.2602 136.436 30.1808 136.543C30.1015 136.646 30.0618 136.751 30.0618 136.858C30.0618 137.026 30.1295 137.154 30.2648 137.243C30.4048 137.327 30.5868 137.388 30.8108 137.425C31.0348 137.462 31.2892 137.486 31.5738 137.495C31.8632 137.504 32.1572 137.521 32.4558 137.544C32.7592 137.563 33.0532 137.598 33.3378 137.649C33.6272 137.7 33.8838 137.784 34.1078 137.901C34.3318 138.018 34.5115 138.179 34.6468 138.384C34.7868 138.589 34.8568 138.855 34.8568 139.182C34.8568 139.485 34.7798 139.779 34.6258 140.064C34.4765 140.349 34.2595 140.601 33.9748 140.82C33.6902 141.044 33.3402 141.221 32.9248 141.352C32.5142 141.487 32.0498 141.555 31.5318 141.555C31.0138 141.555 30.5612 141.504 30.1738 141.401C29.7865 141.298 29.4645 141.161 29.2078 140.988C28.9512 140.815 28.7575 140.615 28.6268 140.386C28.5008 140.162 28.4378 139.926 28.4378 139.679C28.4378 139.329 28.5475 139.033 28.7668 138.79C28.9862 138.547 29.2872 138.354 29.6698 138.209C29.4598 138.116 29.2918 137.992 29.1658 137.838C29.0445 137.679 28.9838 137.467 28.9838 137.201C28.9838 137.098 29.0025 136.993 29.0398 136.886C29.0772 136.774 29.1332 136.664 29.2078 136.557C29.2872 136.445 29.3828 136.34 29.4948 136.242C29.6068 136.144 29.7375 136.058 29.8868 135.983C29.5368 135.787 29.2638 135.528 29.0678 135.206C28.8718 134.879 28.7738 134.501 28.7738 134.072C28.7738 133.727 28.8392 133.414 28.9698 133.134C29.1052 132.849 29.2918 132.609 29.5298 132.413C29.7678 132.212 30.0502 132.058 30.3768 131.951C30.7082 131.844 31.0698 131.79 31.4618 131.79C31.7698 131.79 32.0568 131.825 32.3228 131.895C32.5888 131.96 32.8315 132.058 33.0508 132.189H34.9758ZM37.5803 132.938C37.7343 132.765 37.8976 132.609 38.0703 132.469C38.2429 132.329 38.4249 132.21 38.6163 132.112C38.8123 132.009 39.0176 131.932 39.2323 131.881C39.4516 131.825 39.6873 131.797 39.9393 131.797C40.3266 131.797 40.6673 131.862 40.9613 131.993C41.2599 132.119 41.5073 132.301 41.7033 132.539C41.9039 132.772 42.0556 133.055 42.1583 133.386C42.2609 133.717 42.3123 134.084 42.3123 134.485V139H41.0593V134.485C41.0593 133.948 40.9356 133.533 40.6883 133.239C40.4456 132.94 40.0746 132.791 39.5753 132.791C39.2066 132.791 38.8613 132.88 38.5393 133.057C38.2219 133.234 37.9279 133.475 37.6573 133.778V139H36.4043V131.909H37.1533C37.3306 131.909 37.4403 131.995 37.4823 132.168L37.5803 132.938ZM49.0969 134.681C49.0969 134.392 49.0549 134.128 48.9709 133.89C48.8916 133.647 48.7726 133.44 48.6139 133.267C48.4599 133.09 48.2709 132.954 48.0469 132.861C47.8229 132.763 47.5686 132.714 47.2839 132.714C46.6866 132.714 46.2129 132.889 45.8629 133.239C45.5176 133.584 45.3029 134.065 45.2189 134.681H49.0969ZM50.1049 138.006C49.9509 138.193 49.7666 138.356 49.5519 138.496C49.3372 138.631 49.1062 138.743 48.8589 138.832C48.6162 138.921 48.3642 138.986 48.1029 139.028C47.8416 139.075 47.5826 139.098 47.3259 139.098C46.8359 139.098 46.3832 139.016 45.9679 138.853C45.5572 138.685 45.2002 138.442 44.8969 138.125C44.5982 137.803 44.3649 137.406 44.1969 136.935C44.0289 136.464 43.9449 135.922 43.9449 135.311C43.9449 134.816 44.0196 134.354 44.1689 133.925C44.3229 133.496 44.5422 133.125 44.8269 132.812C45.1116 132.495 45.4592 132.247 45.8699 132.07C46.2806 131.888 46.7426 131.797 47.2559 131.797C47.6806 131.797 48.0726 131.869 48.4319 132.014C48.7959 132.154 49.1086 132.359 49.3699 132.63C49.6359 132.896 49.8436 133.227 49.9929 133.624C50.1422 134.016 50.2169 134.464 50.2169 134.968C50.2169 135.164 50.1959 135.295 50.1539 135.36C50.1119 135.425 50.0326 135.458 49.9159 135.458H45.1769C45.1909 135.906 45.2516 136.296 45.3589 136.627C45.4709 136.958 45.6249 137.236 45.8209 137.46C46.0169 137.679 46.2502 137.845 46.5209 137.957C46.7916 138.064 47.0949 138.118 47.4309 138.118C47.7436 138.118 48.0119 138.083 48.2359 138.013C48.4646 137.938 48.6606 137.859 48.8239 137.775C48.9872 137.691 49.1226 137.614 49.2299 137.544C49.3419 137.469 49.4376 137.432 49.5169 137.432C49.6196 137.432 49.6989 137.472 49.7549 137.551L50.1049 138.006ZM53.0704 133.33C53.2944 132.845 53.5697 132.467 53.8964 132.196C54.2231 131.921 54.6221 131.783 55.0934 131.783C55.2427 131.783 55.3851 131.799 55.5204 131.832C55.6604 131.865 55.7841 131.916 55.8914 131.986L55.8004 132.917C55.7724 133.034 55.7024 133.092 55.5904 133.092C55.5251 133.092 55.4294 133.078 55.3034 133.05C55.1774 133.022 55.0351 133.008 54.8764 133.008C54.6524 133.008 54.4517 133.041 54.2744 133.106C54.1017 133.171 53.9454 133.269 53.8054 133.4C53.6701 133.526 53.5464 133.685 53.4344 133.876C53.3271 134.063 53.2291 134.277 53.1404 134.52V139H51.8874V131.909H52.6014C52.7367 131.909 52.8301 131.935 52.8814 131.986C52.9327 132.037 52.9677 132.126 52.9864 132.252L53.0704 133.33Z" fill="#232323"/>
</svg>
